<svg xmlns="http://www.w3.org/2000/svg" viewBox="0 0 80 80">
  <defs>
    <linearGradient id="bg" x1="0%" y1="0%" x2="100%" y2="100%">
      <stop offset="0%" stop-color="#c471ed"/>
      <stop offset="100%" stop-color="#f64f59"/>
    </linearGradient>
    <clipPath id="circle"><circle cx="40" cy="40" r="40"/></clipPath>
  </defs>
  <circle cx="40" cy="40" r="40" fill="url(#bg)"/>
  <!-- Body -->
  <ellipse cx="40" cy="72" rx="22" ry="14" fill="white" opacity="0.2"/>
  <!-- Head -->
  <circle cx="40" cy="33" r="17" fill="#fde8d8"/>
  <!-- Hair -->
  <path d="M23 28 Q23 14 40 14 Q57 14 57 28 Q53 20 40 20 Q27 20 23 28Z" fill="#4a2c2a"/>
  <path d="M23 28 Q20 35 22 40 Q22 34 23 28Z" fill="#4a2c2a"/>
  <path d="M57 28 Q60 35 58 40 Q58 34 57 28Z" fill="#4a2c2a"/>
  <!-- Eyes -->
  <circle cx="33" cy="33" r="3" fill="#4a2c2a"/>
  <circle cx="47" cy="33" r="3" fill="#4a2c2a"/>
  <circle cx="34" cy="32" r="1" fill="white"/>
  <circle cx="48" cy="32" r="1" fill="white"/>
  <!-- Smile -->
  <path d="M34 40 Q40 45 46 40" stroke="#c471ed" stroke-width="2" fill="none" stroke-linecap="round"/>
  <!-- Moon decoration -->
  <path d="M62 8 Q68 14 62 20 Q72 14 62 8Z" fill="#ffd700" opacity="0.9"/>
  <!-- Stars -->
  <circle cx="12" cy="16" r="2" fill="white" opacity="0.7"/>
  <circle cx="20" cy="10" r="1.5" fill="white" opacity="0.5"/>
  <circle cx="68" cy="30" r="1.5" fill="white" opacity="0.5"/>
</svg>
